<svg width="24" height="24" viewBox="0 0 24 24" fill="none" xmlns="http://www.w3.org/2000/svg">
<g id="Layer_1" clip-path="url(#clip0_79_1448)">
<path id="Vector" d="M10.5156 23.9001C10.1001 23.9001 9.744 23.7513 9.46208 23.4687C9.18016 23.1861 9.03178 22.8291 9.03178 22.4126V13.4876L0.425795 2.4801C0.0548473 1.98922 -0.00450433 1.4686 0.262578 0.918223C0.52966 0.367848 0.974797 0.100098 1.61283 0.100098H22.3859C23.0239 0.100098 23.4839 0.367848 23.7361 0.918223C23.9884 1.4686 23.9439 1.98922 23.5729 2.4801L14.9669 13.4876V22.4126C14.9669 22.8291 14.8186 23.1861 14.5366 23.4687C14.2547 23.7513 13.8986 23.9001 13.4832 23.9001H10.5156ZM11.9994 12.4463L19.3441 3.0751H4.6546L11.9994 12.4463Z" fill="white"/>
</g>
<defs>
<clipPath id="clip0_79_1448">
<rect width="23.8" height="23.8" fill="white" transform="translate(0.0996094 0.100098)"/>
</clipPath>
</defs>
</svg>
